<svg id="visual" viewBox="0 0 1920 1080" width="1920" height="1080" xmlns="http://www.w3.org/2000/svg" xmlns:xlink="http://www.w3.org/1999/xlink" version="1.1"><g stroke-width="1" stroke-linejoin="bevel"><path d="M960 540L960 270L640 270Z" fill="#e9e9e9" stroke="#e9e9e9"></path><path d="M640 270L640 540L960 540Z" fill="#dddddd" stroke="#dddddd"></path><path d="M640 540L640 810L960 540Z" fill="#d7d7d7" stroke="#d7d7d7"></path><path d="M640 810L960 810L960 540Z" fill="#efefef" stroke="#efefef"></path><path d="M960 270L960 0L640 270Z" fill="#cbcbcb" stroke="#cbcbcb"></path><path d="M960 0L640 0L640 270Z" fill="#efefef" stroke="#efefef"></path><path d="M640 0L320 270L640 270Z" fill="#cbcbcb" stroke="#cbcbcb"></path><path d="M640 270L320 270L640 540Z" fill="#e9e9e9" stroke="#e9e9e9"></path><path d="M640 540L320 540L640 810Z" fill="#e3e3e3" stroke="#e3e3e3"></path><path d="M960 540L1280 270L960 270Z" fill="#c5c5c5" stroke="#c5c5c5"></path><path d="M960 270L1280 270L960 0Z" fill="#b9b9b9" stroke="#b9b9b9"></path><path d="M1280 540L1280 270L960 540Z" fill="#e9e9e9" stroke="#e9e9e9"></path><path d="M320 270L320 540L640 540Z" fill="#dddddd" stroke="#dddddd"></path><path d="M960 810L1280 540L960 540Z" fill="#d1d1d1" stroke="#d1d1d1"></path><path d="M1280 270L1280 0L960 0Z" fill="#d1d1d1" stroke="#d1d1d1"></path><path d="M960 810L1280 810L1280 540Z" fill="#bfbfbf" stroke="#bfbfbf"></path><path d="M640 0L320 0L320 270Z" fill="#bfbfbf" stroke="#bfbfbf"></path><path d="M320 540L320 810L640 810Z" fill="#c5c5c5" stroke="#c5c5c5"></path><path d="M640 810L960 1080L960 810Z" fill="#efefef" stroke="#efefef"></path><path d="M960 810L960 1080L1280 810Z" fill="#d1d1d1" stroke="#d1d1d1"></path><path d="M640 1080L960 1080L640 810Z" fill="#d7d7d7" stroke="#d7d7d7"></path><path d="M320 810L640 1080L640 810Z" fill="#cbcbcb" stroke="#cbcbcb"></path><path d="M320 0L0 270L320 270Z" fill="#d7d7d7" stroke="#d7d7d7"></path><path d="M320 270L0 270L320 540Z" fill="#e9e9e9" stroke="#e9e9e9"></path><path d="M320 540L0 540L320 810Z" fill="#dddddd" stroke="#dddddd"></path><path d="M0 270L0 540L320 540Z" fill="#efefef" stroke="#efefef"></path><path d="M1280 810L1600 540L1280 540Z" fill="#e9e9e9" stroke="#e9e9e9"></path><path d="M1280 540L1600 540L1280 270Z" fill="#b3b3b3" stroke="#b3b3b3"></path><path d="M1280 270L1600 270L1280 0Z" fill="#d1d1d1" stroke="#d1d1d1"></path><path d="M1600 540L1600 270L1280 270Z" fill="#cbcbcb" stroke="#cbcbcb"></path><path d="M1280 810L1600 810L1600 540Z" fill="#e3e3e3" stroke="#e3e3e3"></path><path d="M960 1080L1280 1080L1280 810Z" fill="#b9b9b9" stroke="#b9b9b9"></path><path d="M0 810L320 1080L320 810Z" fill="#b9b9b9" stroke="#b9b9b9"></path><path d="M320 810L320 1080L640 1080Z" fill="#e3e3e3" stroke="#e3e3e3"></path><path d="M1280 1080L1600 810L1280 810Z" fill="#efefef" stroke="#efefef"></path><path d="M320 0L0 0L0 270Z" fill="#e3e3e3" stroke="#e3e3e3"></path><path d="M0 540L0 810L320 810Z" fill="#e9e9e9" stroke="#e9e9e9"></path><path d="M1600 270L1600 0L1280 0Z" fill="#b9b9b9" stroke="#b9b9b9"></path><path d="M0 810L0 1080L320 1080Z" fill="#d7d7d7" stroke="#d7d7d7"></path><path d="M1280 1080L1600 1080L1600 810Z" fill="#cbcbcb" stroke="#cbcbcb"></path><path d="M1920 810L1920 540L1600 810Z" fill="#cbcbcb" stroke="#cbcbcb"></path><path d="M1600 810L1920 540L1600 540Z" fill="#b9b9b9" stroke="#b9b9b9"></path><path d="M1600 540L1920 540L1600 270Z" fill="#e3e3e3" stroke="#e3e3e3"></path><path d="M1600 270L1920 270L1600 0Z" fill="#dddddd" stroke="#dddddd"></path><path d="M1920 540L1920 270L1600 270Z" fill="#cbcbcb" stroke="#cbcbcb"></path><path d="M1600 1080L1920 810L1600 810Z" fill="#cbcbcb" stroke="#cbcbcb"></path><path d="M1920 270L1920 0L1600 0Z" fill="#d1d1d1" stroke="#d1d1d1"></path><path d="M1600 1080L1920 1080L1920 810Z" fill="#efefef" stroke="#efefef"></path></g></svg>